<svg width="27" height="21" viewBox="0 0 27 21" fill="none" xmlns="http://www.w3.org/2000/svg">
<g clip-path="url(#clip0_11149_81515)">
<mask id="mask0_11149_81515" style="mask-type:alpha" maskUnits="userSpaceOnUse" x="0" y="0" width="27" height="21">
<path d="M0 0.5H26.6669V20.5H0V0.5Z" fill="white"/>
</mask>
<g mask="url(#mask0_11149_81515)">
<path fill-rule="evenodd" clip-rule="evenodd" d="M0 0.5H40.0043V13.7852H0V0.5Z" fill="#B20000"/>
<path fill-rule="evenodd" clip-rule="evenodd" d="M0 13.7852H40.0043V20.5H0V13.7852Z" fill="#429F00"/>
<path fill-rule="evenodd" clip-rule="evenodd" d="M0 0.5H4.43016V20.5H0V0.5Z" fill="white"/>
<path fill-rule="evenodd" clip-rule="evenodd" d="M0.210938 0.839844H0.421898V1.17969H0.210938V0.839844ZM0.843817 0.839844H1.4767V1.17969H0.843817V0.839844ZM1.05478 0.5H1.26574V0.839844H1.05478V0.5ZM2.10958 0.5H2.32054V0.839844H2.10958V0.5ZM2.95342 0.839844H3.5863V1.17969H2.95342V0.839844ZM3.16438 0.5H3.37534V0.839844H3.16438V0.5ZM0.632858 1.17969H1.05478V1.51562H0.632858V1.17969ZM1.26574 1.17969H1.68766V1.51562H1.26574V1.17969ZM2.74246 1.17969H3.16438V1.51562H2.74246V1.17969ZM3.37534 1.17969H3.79726V1.51562H3.37534V1.17969ZM0.421898 1.51562H0.843817V1.85547H0.421898V1.51562ZM1.4767 1.51562H1.89862V1.85547H1.4767V1.51562ZM2.5315 1.51562H2.95342V1.85547H2.5315V1.51562ZM3.5863 1.51562H4.00822V1.85547H3.5863V1.51562ZM4.00822 0.839844H4.21918V1.17969H4.00822V0.839844ZM0.210938 1.85547H0.632858V2.19531H0.210938V1.85547ZM1.68766 1.85547H2.10958V2.19531H1.68766V1.85547ZM3.79726 1.85547H4.21918V2.19531H3.79726V1.85547ZM0.421898 2.87109H0.843817V3.21094H0.421898V2.87109ZM0.632858 3.21094H1.05478V3.55078H0.632858V3.21094ZM1.4767 2.875H1.89862V3.21094H1.4767V2.875ZM1.26574 3.21094H1.68766V3.55078H1.26574V3.21094ZM0.843817 3.55078H1.4767V3.89062H0.843817V3.55078Z" fill="#B20000"/>
<path fill-rule="evenodd" clip-rule="evenodd" d="M1.0548 3.89063H1.26576V4.23047H1.0548V3.89063ZM2.53152 2.875H2.95344V3.21094H2.53152V2.875ZM2.74248 3.21094H3.1644V3.55078H2.74248V3.21094ZM3.58632 2.875H4.00824V3.21094H3.58632V2.875ZM3.37536 3.21094H3.79728V3.55078H3.37536V3.21094ZM2.95344 3.55078H3.58632V3.89063H2.95344V3.55078ZM3.1644 3.89063H3.37536V4.23047H3.1644V3.89063ZM2.1096 3.54688H2.32056V3.88672H2.1096V3.54688ZM0 3.54688H0.21096V3.88672H0V3.54688ZM4.2192 3.54688H4.43016V3.88672H4.2192V3.54688ZM1.0548 5.24219H1.26576V5.58203H1.0548V5.24219ZM0.84384 5.58594H1.47672V5.92188H0.84384V5.58594ZM0.63288 5.92188H1.68768V6.26172H0.63288V5.92188ZM3.1644 5.24609H3.37536V5.58594H3.1644V5.24609ZM2.95344 5.58594H3.58632V5.92188H2.95344V5.58594ZM2.74248 5.92188H3.79728V6.26172H2.74248V5.92188ZM2.95344 7.61719H4.00824V7.95703H2.95344V7.61719ZM2.53152 6.26172H4.00824V6.60156H2.53152V6.26172ZM0.42192 6.26172H1.89864V6.60156H0.42192V6.26172ZM0.63288 7.95703H1.26576V8.29688H0.63288V7.95703ZM0.42192 7.61719H1.47672V7.95703H0.42192V7.61719ZM3.37536 6.94531H4.43016V7.28516H3.37536V6.94531ZM3.1644 7.96094H3.79728V8.30078H3.1644V7.96094Z" fill="#B20000"/>
<path fill-rule="evenodd" clip-rule="evenodd" d="M0.84384 8.29688H1.0548V8.63672H0.84384V8.29688ZM3.37536 8.29688H3.58632V8.63672H3.37536V8.29688ZM0 6.94141H1.0548V7.28125H0V6.94141ZM1.89864 7.61719H2.53152V7.95703H1.89864V7.61719ZM2.1096 7.96094H2.32056V8.30078H2.1096V7.96094ZM1.47672 6.94531H2.95344V7.28516H1.47672V6.94531ZM2.32056 1.85547H2.74248V2.19531H2.32056V1.85547ZM1.89864 2.19531H2.53152V2.53516H1.89864V2.19531ZM1.68768 2.53516H2.1096V2.87109H1.68768V2.53516ZM2.32056 2.53516H2.74248V2.87109H2.32056V2.53516ZM0 2.19531H0.42192V2.53516H0V2.19531ZM0.21096 2.53516H0.63288V2.87109H0.21096V2.53516ZM4.00824 2.19531H4.43016V2.53125H4.00824V2.19531ZM3.79728 2.53125H4.2192V2.86719H3.79728V2.53125ZM0 5.57812H0.21096V5.91797H0V5.57812ZM4.2192 5.57812H4.43016V5.91797H4.2192V5.57812ZM1.89864 8.29297H2.53152V8.63281H1.89864V8.29297ZM1.68768 8.63281H2.1096V8.96875H1.68768V8.63281ZM2.32056 8.63281H2.74248V8.96875H2.32056V8.63281ZM1.47672 8.96875H1.89864V9.30859H1.47672V8.96875ZM2.53152 8.96875H2.95344V9.30859H2.53152V8.96875ZM1.26576 9.30859H1.68768V9.64844H1.26576V9.30859ZM2.74248 9.30859H3.1644V9.64844H2.74248V9.30859ZM1.0548 9.65234H1.47672V9.99219H1.0548V9.65234ZM2.95344 9.65234H3.37536V9.99219H2.95344V9.65234ZM0.63288 9.99219H1.26576V10.332H0.63288V9.99219ZM3.1644 9.99219H3.79728V10.332H3.1644V9.99219ZM3.58632 9.65234H4.00824V9.99219H3.58632V9.65234ZM3.79728 9.3125H4.2192V9.65234H3.79728V9.3125ZM4.00824 8.97266H4.43016V9.3125H4.00824V8.97266ZM0.42192 9.65234H0.84384V9.99219H0.42192V9.65234ZM0.21096 9.3125H0.63288V9.65234H0.21096V9.3125ZM0 8.97656H0.42192V9.31641H0V8.97656ZM0.84384 10.3359H1.0548V10.6719H0.84384V10.3359ZM3.37536 10.3359H3.58632V10.6719H3.37536V10.3359ZM2.1096 9.32031H2.32056V9.65625H2.1096V9.32031ZM1.47672 10.3359H1.68768V10.6719H1.47672V10.3359ZM2.74248 10.3359H2.95344V10.6719H2.74248V10.3359ZM2.1096 10.3359H2.32056V10.6719H2.1096V10.3359ZM0 10.3359H0.21096V10.6719H0L0 10.3359ZM4.2192 10.3359H4.43016V10.6719H4.2192V10.3359ZM2.1096 5.58594H2.32056V5.92188H2.1096V5.58594ZM1.0548 2.19531H1.26576V2.53516H1.0548V2.19531ZM3.1644 2.19531H3.37536V2.53516H3.1644V2.19531ZM1.89864 4.56641H2.53152V4.90625H1.89864V4.56641ZM1.47672 4.90625H2.1096V5.24609H1.47672V4.90625ZM1.68768 5.24609H1.89864V5.58594H1.68768V5.24609ZM1.26576 4.56641H1.68768V4.90625H1.26576V4.56641ZM1.47672 4.23047H2.1096V4.56641H1.47672V4.23047ZM1.68768 3.89062H1.89864V4.23047H1.68768V3.89062ZM2.32056 4.23047H2.95344V4.56641H2.32056V4.23047ZM2.53152 3.89062H2.74248V4.23047H2.53152V3.89062ZM2.74248 4.56641H3.1644V4.90625H2.74248V4.56641ZM2.32056 4.90625H2.95344V5.24609H2.32056V4.90625ZM2.53152 5.24609H2.74248V5.58594H2.53152V5.24609ZM3.37536 4.56641H3.79728V4.90625H3.37536V4.56641ZM3.58632 4.23047H4.2192V4.56641H3.58632V4.23047ZM4.00824 4.56641H4.43016V4.90625H4.00824V4.56641ZM3.58632 4.90625H4.2192V5.24609H3.58632V4.90625ZM3.79728 5.24609H4.00824V5.58594H3.79728V5.24609ZM3.79728 3.89062H4.00824V4.23047H3.79728V3.89062ZM0 4.5625H0.42192V4.90234H0V4.5625ZM0.21096 4.22656H0.84384V4.5625H0.21096V4.22656ZM0.63288 4.5625H1.0548V4.90234H0.63288V4.5625ZM0.21096 4.90234H0.84384V5.24219H0.21096V4.90234Z" fill="#B20000"/>
<path fill-rule="evenodd" clip-rule="evenodd" d="M0.42192 5.24609H0.63288V5.58594H0.42192V5.24609ZM0.42192 3.89062H0.63288V4.23047H0.42192V3.89062ZM0.21096 6.60156H1.0548V6.94141H0.21096V6.60156ZM1.26576 6.60156H2.1096V6.94141H1.26576V6.60156ZM2.32056 6.60156H3.1644V6.94141H2.32056V6.60156ZM3.37536 6.60156H4.2192V6.94141H3.37536V6.60156ZM1.68768 7.28125H2.74248V7.61719H1.68768V7.28125ZM0.21096 7.28125H1.26576V7.61719H0.21096V7.28125ZM3.1644 7.28125H4.2192V7.61719H3.1644V7.28125ZM4.2192 8.63672H4.43016V8.97266H4.2192V8.63672ZM0 8.63672H0.21096V8.97266H0V8.63672ZM0.21096 20.1602H0.42192V19.8242H0.21096V20.1602ZM0.84384 20.1602H1.47672V19.8242H0.84384V20.1602ZM1.0548 20.5H1.26576V20.1602H1.0548V20.5ZM2.1096 20.5H2.32056V20.1602H2.1096V20.5ZM2.95344 20.1602H3.58632V19.8203H2.95344V20.1602ZM3.1644 20.5H3.37536V20.1602H3.1644V20.5ZM0.63288 19.8203H1.0548V19.4844H0.63288V19.8203ZM1.26576 19.8203H1.68768V19.4844H1.26576V19.8203ZM2.74248 19.8203H3.1644V19.4844H2.74248V19.8203ZM3.37536 19.8203H3.79728V19.4844H3.37536V19.8203ZM1.47672 19.4844H1.89864V19.1445H1.47672V19.4844ZM2.53152 19.4844H2.95344V19.1445H2.53152V19.4844ZM3.58632 19.4844H4.00824V19.1445H3.58632V19.4844ZM4.00824 20.1602H4.2192V19.8203H4.00824V20.1602ZM0.21096 19.1445H0.63288V18.8047H0.21096V19.1445ZM1.68768 19.1445H2.1096V18.8047H1.68768V19.1445ZM3.79728 19.1445H4.2192V18.8047H3.79728V19.1445ZM0.42192 18.1289H0.84384V17.7891H0.42192V18.1289ZM0.63288 17.7891H1.0548V17.4492H0.63288V17.7891ZM1.47672 18.1289H1.89864V17.7891H1.47672V18.1289ZM1.26576 17.7891H1.68768V17.4492H1.26576V17.7891ZM0.84384 17.4492H1.47672V17.1094H0.84384V17.4492ZM1.0548 17.1094H1.26576V16.7734H1.0548V17.1094ZM2.53152 18.125H2.95344V17.7891H2.53152V18.125ZM2.74248 17.7891H3.1644V17.4492H2.74248V17.7891ZM3.58632 18.1289H4.00824V17.7891H3.58632V18.1289ZM3.37536 17.7891H3.79728V17.4492H3.37536V17.7891ZM2.95344 17.4492H3.58632V17.1094H2.95344V17.4492ZM3.1644 17.1094H3.37536V16.7734H3.1644V17.1094ZM2.1096 17.4531H2.32056V17.1133H2.1096V17.4531ZM0 17.4531H0.21096V17.1133H0V17.4531ZM4.2192 17.4531H4.43016V17.1133H4.2192V17.4531ZM1.0548 15.7578H1.26576V15.418H1.0548V15.7578ZM0.84384 15.4141H1.47672V15.0781H0.84384V15.4141ZM0.63288 15.0781H1.68768V14.7383H0.63288V15.0781ZM3.1644 15.7539H3.37536V15.4141H3.1644V15.7539Z" fill="#B20000"/>
<path fill-rule="evenodd" clip-rule="evenodd" d="M2.95344 15.4141H3.58632V15.0781H2.95344V15.4141ZM2.74248 15.0781H3.79728V14.7383H2.74248V15.0781ZM2.95344 13.3828H4.00824V13.0391H2.95344V13.3828ZM2.53152 14.7383H4.00824V14.3984H2.53152V14.7383ZM0.42192 14.7383H1.89864V14.3984H0.42192V14.7383ZM0.63288 13.043H1.26576V12.7031H0.63288V13.043ZM0.42192 13.3828H1.47672V13.0391H0.42192V13.3828ZM3.37536 14.0547H4.43016V13.7148H3.37536V14.0547ZM3.1644 13.0391H3.79728V12.6992H3.1644V13.0391ZM0 14.0547H1.0548V13.7148H0V14.0547ZM1.89864 13.3789H2.53152V13.0391H1.89864V13.3789ZM2.1096 13.0391H2.32056V12.6992H2.1096V13.0391ZM1.47672 14.0547H2.95344V13.7148H1.47672V14.0547ZM2.32056 19.1406H2.74248V18.8008H2.32056V19.1406ZM1.89864 18.8008H2.53152V18.4688H1.89864V18.8008ZM1.68768 18.4609H2.1096V18.1211H1.68768V18.4609ZM2.32056 18.4609H2.74248V18.1211H2.32056V18.4609ZM0 18.8047H0.42192V18.4688H0V18.8047ZM0.21096 18.4648H0.63288V18.1289H0.21096V18.4648ZM4.00824 18.8047H4.43016V18.4688H4.00824V18.8047ZM3.79728 18.4648H4.2192V18.1289H3.79728V18.4648ZM0 15.4219H0.21096V15.082H0V15.4219ZM4.2192 15.4219H4.43016V15.082H4.2192V15.4219ZM1.68768 12.3672H2.1096V12.0313H1.68768V12.3672ZM2.32056 12.3672H2.74248V12.0313H2.32056V12.3672ZM1.47672 12.0313H1.89864V11.6914H1.47672V12.0313ZM2.53152 12.0313H2.95344V11.6914H2.53152V12.0313ZM1.26576 11.6914H1.68768V11.3516H1.26576V11.6914ZM2.74248 11.6914H3.1644V11.3516H2.74248V11.6914ZM1.0548 11.3477H1.47672V11.0078H1.0548V11.3477ZM2.95344 11.3477H3.37536V11.0078H2.95344V11.3477ZM0.63288 11.0078H1.26576V10.668H0.63288V11.0078ZM3.1644 11.0078H3.79728V10.668H3.1644V11.0078ZM3.58632 11.3477H4.00824V11.0078H3.58632V11.3477ZM3.79728 11.6875H4.2192V11.3477H3.79728V11.6875ZM4.00824 12.0273H4.43016V11.6875H4.00824V12.0273ZM0.42192 11.3477H0.84384V11.0078H0.42192V11.3477ZM0.21096 11.6875H0.63288V11.3477H0.21096V11.6875ZM0 12.0234H0.42192V11.6836H0V12.0234ZM0.84384 10.6641H1.0548V10.3281H0.84384V10.6641ZM2.1096 11.6797H2.32056V11.3438H2.1096V11.6797ZM2.1096 15.4102H2.32056V15.0742H2.1096V15.4102ZM1.0548 18.8008H1.26576V18.4688H1.0548V18.8008ZM3.1644 18.8008H3.37536V18.4688H3.1644V18.8008ZM1.89864 16.4375H2.53152V16.0977H1.89864V16.4375ZM1.47672 16.0977H2.1096V15.7578H1.47672V16.0977ZM1.68768 15.7578H1.89864V15.418H1.68768V15.7578ZM1.26576 16.4375H1.68768V16.0977H1.26576V16.4375ZM1.47672 16.7695H2.1096V16.4375H1.47672V16.7695ZM1.68768 17.1094H1.89864V16.7734H1.68768V17.1094ZM2.32056 16.7695H2.95344V16.4375H2.32056V16.7695ZM2.53152 17.1094H2.74248V16.7734H2.53152V17.1094ZM2.74248 16.4336H3.1644V16.0938H2.74248V16.4336ZM2.32056 16.0938H2.95344V15.7539H2.32056V16.0938ZM2.53152 15.7539H2.74248V15.4141H2.53152V15.7539ZM3.37536 16.4375H3.79728V16.0977H3.37536V16.4375ZM3.58632 16.7695H4.2192V16.4375H3.58632V16.7695ZM4.00824 16.4336H4.43016V16.0938H4.00824V16.4336ZM3.58632 16.0938H4.2192V15.7539H3.58632V16.0938ZM3.79728 15.7539H4.00824V15.4141H3.79728V15.7539ZM3.79728 17.1094H4.00824V16.7734H3.79728V17.1094ZM0 16.4375H0.42192V16.0977H0V16.4375ZM0.21096 16.7695H0.84384V16.4375H0.21096V16.7695Z" fill="#B20000"/>
<path fill-rule="evenodd" clip-rule="evenodd" d="M0.63288 16.4336H1.0548V16.0938H0.63288V16.4336ZM0.21096 16.0938H0.84384V15.7539H0.21096V16.0938ZM0.42192 15.7539H0.63288V15.4141H0.42192V15.7539ZM0.42192 17.1094H0.63288V16.7734H0.42192V17.1094ZM0.21096 14.3984H1.0548V14.0586H0.21096V14.3984ZM1.26576 14.3984H2.1096V14.0586H1.26576V14.3984ZM2.32056 14.3984H3.1644V14.0586H2.32056V14.3984ZM3.37536 14.3984H4.2192V14.0586H3.37536V14.3984ZM1.68768 13.7187H2.74248V13.3828H1.68768V13.7187ZM0.21096 13.7187H1.26576V13.3828H0.21096V13.7187ZM3.1644 13.7187H4.2192V13.3828H3.1644V13.7187ZM4.2192 12.3672H4.43016V12.0234H4.2192V12.3672ZM0 12.3672H0.21096V12.0234H0V12.3672ZM1.89864 10.668H2.1096V11.0078H1.89864V10.668ZM2.32056 10.668H2.53152V11.0078H2.32056V10.668ZM2.32056 9.99219H2.53152V10.332H2.32056V9.99219ZM1.89864 9.99219H2.1096V10.332H1.89864V9.99219ZM0.42192 19.1445H0.84384V19.4844H0.42192V19.1445ZM3.37536 12.7031H3.58632V12.3633H3.37536V12.7031ZM0.84384 12.7031H1.0548V12.3633H0.84384V12.7031ZM1.89864 12.3633H2.53152V12.7031H1.89864V12.3633Z" fill="#B20000"/>
</g>
</g>
<defs>
<clipPath id="clip0_11149_81515">
<rect width="26.6667" height="20" fill="white" transform="translate(0 0.5)"/>
</clipPath>
</defs>
</svg>
