<svg width="27" height="20" viewBox="0 0 27 20" fill="none" xmlns="http://www.w3.org/2000/svg">
<g clip-path="url(#clip0_11149_81877)">
<path fill-rule="evenodd" clip-rule="evenodd" d="M0 0H26.6667V20H0V0Z" fill="#E30A17"/>
<path fill-rule="evenodd" clip-rule="evenodd" d="M16.9587 10.3122C16.9587 13.0706 14.6837 15.3081 11.8753 15.3081C9.06699 15.3081 6.79199 13.0706 6.79199 10.3081C6.79199 7.54557 9.06699 5.31641 11.8753 5.31641C14.6837 5.31641 16.9587 7.55391 16.9587 10.3122Z" fill="white"/>
<path fill-rule="evenodd" clip-rule="evenodd" d="M17.2083 10.3122C17.2083 12.5206 15.3916 14.3081 13.1458 14.3081C10.8999 14.3081 9.0791 12.5164 9.0791 10.3081C9.0791 8.09974 10.8999 6.31641 13.1458 6.31641C15.3916 6.31641 17.2124 8.10391 17.2124 10.3122H17.2083Z" fill="#E30A17"/>
<path fill-rule="evenodd" clip-rule="evenodd" d="M17.9461 7.98073L17.9044 9.82656L16.1836 10.2932L17.8836 10.8974L17.8419 12.5932L18.9461 11.2682L20.6211 11.8516L19.6544 10.4307L20.8336 9.01823L19.0211 9.51823L17.9461 7.97656V7.98073Z" fill="white"/>
</g>
<defs>
<clipPath id="clip0_11149_81877">
<rect width="26.6667" height="20" fill="white"/>
</clipPath>
</defs>
</svg>
