<svg width="27" height="21" viewBox="0 0 27 21" fill="none" xmlns="http://www.w3.org/2000/svg">
<g clip-path="url(#clip0_11149_81547)">
<path fill-rule="evenodd" clip-rule="evenodd" d="M0 0.5H26.6667V20.5H0V0.5Z" fill="#00ABC2"/>
<path fill-rule="evenodd" clip-rule="evenodd" d="M2.5082 19.9588C2.6457 20.0921 2.59987 20.3129 2.97904 20.2838C3.55404 20.2838 3.5707 19.9338 3.5707 19.6879C3.5707 19.4421 2.7082 19.1004 2.66654 18.7379C2.62487 18.3754 2.86654 18.2796 3.06654 18.2796C3.26237 18.2796 3.39987 18.3921 3.39987 18.4921C3.39987 18.5921 3.3082 18.6254 3.16654 18.6254C3.02487 18.6254 3.22904 18.5546 3.1082 18.5004C2.98737 18.4463 2.9082 18.5838 2.9082 18.6671C2.9082 18.7588 3.2082 18.7838 3.4082 18.7213C3.44987 18.9171 3.46654 18.9296 3.18737 19.2629C3.38737 19.1338 3.40404 19.1046 3.62487 19.1796C3.40404 18.9879 3.5707 18.6046 3.57487 18.5088C3.57904 18.4129 3.5332 18.2963 3.44987 18.2379C3.28737 18.0921 2.94154 18.0838 2.7332 18.1796C2.42904 18.3129 2.41237 18.7129 2.49154 18.8463L3.3332 19.6963C3.39154 19.7963 3.41654 20.0796 3.0582 20.0921C2.6832 20.1213 2.54987 19.6088 2.4832 19.4379C2.3957 19.6254 2.2957 20.1379 1.91654 20.1088C1.5582 20.0963 1.49154 19.8171 1.54987 19.7129L2.41237 18.8379C2.4957 18.7046 2.47904 18.3046 2.17487 18.1713C1.96654 18.0754 1.6207 18.0879 1.46237 18.2296C1.3707 18.2879 1.3207 18.4004 1.32904 18.5004C1.33737 18.6004 1.49987 18.9796 1.2832 19.1671C1.49987 19.0963 1.5207 19.1254 1.7207 19.2504C1.44154 18.9213 1.46237 18.9088 1.49987 18.7088C1.69987 18.7754 1.99987 18.7504 1.99987 18.6629C1.99987 18.5754 1.91654 18.4296 1.7957 18.4879C1.67904 18.5463 1.87904 18.6171 1.73737 18.6171C1.59987 18.6171 1.49987 18.5879 1.49987 18.4921C1.49987 18.3963 1.63737 18.2713 1.83737 18.2713C2.03737 18.2713 2.27487 18.3713 2.2332 18.7338C2.19154 19.0963 1.31654 19.4879 1.31654 19.7338C1.31654 19.9838 1.37487 20.2796 1.94987 20.2796C2.32487 20.3088 2.3707 20.0879 2.5082 19.9546V19.9588Z" fill="#FFEC2D"/>
<path fill-rule="evenodd" clip-rule="evenodd" d="M2.46263 14.8058C2.60013 14.6725 2.71263 14.2808 3.08763 14.3058C3.66263 14.3058 3.8793 14.6267 3.8793 14.8725C3.8793 15.1183 2.71263 17.1225 2.67096 17.485C2.6293 17.8475 2.87096 17.9475 3.0668 17.9475C3.2668 17.9475 3.4043 17.835 3.4043 17.7308C3.4043 17.6267 3.3043 17.6058 3.1668 17.6058C3.0293 17.6058 3.22513 17.6767 3.10846 17.7308C2.9918 17.785 2.90846 17.6475 2.90846 17.56C2.90846 17.4725 3.20846 17.4433 3.40846 17.51C3.44596 17.3142 3.46263 17.3017 3.18763 16.9683C3.38763 17.0933 3.4043 17.1267 3.62513 17.0517C3.4043 17.2433 3.5668 17.6225 3.57513 17.7183C3.58346 17.8142 3.53346 17.935 3.44596 17.9933C3.28763 18.1392 2.93763 18.1433 2.7293 18.0517C2.4293 17.9142 2.41263 17.5183 2.4918 17.385L3.62513 14.9433C3.68763 14.8433 3.5293 14.51 3.17096 14.4975C2.79596 14.4683 2.6668 14.8642 2.60013 15.035L3.11263 14.9933C3.11263 14.9933 3.13346 15.0767 3.11263 15.1267C2.94068 15.1392 2.76957 15.1615 2.60013 15.1933L2.5793 15.4517H2.8293L2.81263 15.5683C2.81263 15.5683 2.60013 15.5517 2.5793 15.5683C2.55846 15.5808 2.53763 15.8267 2.53763 15.8267C2.53763 15.8267 2.49596 15.8433 2.4543 15.8433C2.41263 15.8433 2.37096 15.8267 2.37096 15.8267C2.37096 15.8267 2.3543 15.5808 2.33346 15.5683C2.31263 15.5517 2.10013 15.5683 2.10013 15.5683L2.0793 15.4517H2.33346L2.31263 15.1933C2.31263 15.1933 2.06263 15.1433 1.80013 15.1267C1.78346 15.0767 1.80013 14.9975 1.80013 14.9975L2.31263 15.035C2.24596 14.8642 2.1168 14.4683 1.7418 14.4933C1.38346 14.51 1.22513 14.8433 1.28346 14.9433L2.4168 17.385C2.49596 17.5142 2.4793 17.9142 2.1793 18.0517C1.97096 18.1433 1.62096 18.135 1.46263 17.9933C1.37513 17.935 1.32513 17.8183 1.33346 17.7225C1.3418 17.6267 1.50013 17.2392 1.28346 17.0558C1.5043 17.1267 1.52513 17.0975 1.72096 16.9683C1.44596 17.3017 1.46263 17.3142 1.5043 17.51C1.70013 17.4433 2.00013 17.4683 2.00013 17.56C2.00013 17.6433 1.9168 17.7892 1.80013 17.7308C1.68346 17.6725 1.88346 17.6058 1.7418 17.6058C1.6043 17.6058 1.5043 17.6308 1.5043 17.7308C1.5043 17.8308 1.6418 17.9475 1.83763 17.9475C2.03346 17.9475 2.27513 17.8475 2.23763 17.4892C2.19596 17.1267 1.0293 15.1142 1.0293 14.8725C1.0293 14.6225 1.24596 14.31 1.82096 14.31C2.19596 14.2808 2.33346 14.6725 2.4668 14.8058H2.46263Z" fill="#FFEC2D"/>
<path fill-rule="evenodd" clip-rule="evenodd" d="M2.46263 13.8099C2.60013 13.9432 2.71263 14.3349 3.08763 14.3099C3.66263 14.3099 3.8793 13.989 3.8793 13.7432C3.8793 13.4974 2.71263 11.4932 2.67096 11.1307C2.6293 10.7682 2.87096 10.6682 3.0668 10.6682C3.2668 10.6682 3.4043 10.7807 3.4043 10.8849C3.4043 10.989 3.3043 11.0099 3.1668 11.0099C3.0293 11.0099 3.22513 10.9432 3.10846 10.8849C2.9918 10.8265 2.90846 10.9682 2.90846 11.0557C2.90846 11.1432 3.20846 11.1724 3.40846 11.1057C3.44596 11.3015 3.46263 11.314 3.18763 11.6474C3.38763 11.5224 3.4043 11.489 3.62513 11.564C3.4043 11.3724 3.5668 10.9932 3.57513 10.8974C3.58346 10.8015 3.53346 10.6807 3.44596 10.6224C3.28763 10.4807 2.93763 10.4724 2.7293 10.564C2.4293 10.7015 2.41263 11.0974 2.4918 11.2307L3.62513 13.6682C3.68763 13.7682 3.5293 14.1015 3.17096 14.114C2.79596 14.1432 2.6668 13.7474 2.60013 13.5765L3.11263 13.6182C3.11263 13.6182 3.13346 13.5349 3.11263 13.4849C2.94068 13.4723 2.76957 13.45 2.60013 13.4182L2.5793 13.1599H2.8293L2.81263 13.0432C2.81263 13.0432 2.60013 13.0599 2.5793 13.0432C2.55846 13.0307 2.53763 12.7849 2.53763 12.7849C2.53763 12.7849 2.49596 12.7682 2.4543 12.7682C2.41263 12.7682 2.37096 12.7849 2.37096 12.7849C2.37096 12.7849 2.3543 13.0307 2.33346 13.0432C2.31263 13.0599 2.10013 13.0432 2.10013 13.0432L2.0793 13.1599H2.33346L2.31263 13.4182C2.31263 13.4182 2.06263 13.4682 1.80013 13.4849C1.78346 13.5349 1.80013 13.614 1.80013 13.614L2.31263 13.5765C2.24596 13.7474 2.1168 14.1432 1.7418 14.1182C1.38346 14.1015 1.22513 13.7682 1.28346 13.6682L2.4168 11.2307C2.49596 11.0974 2.4793 10.7015 2.1793 10.564C1.97096 10.4724 1.62096 10.4807 1.46263 10.6224C1.37513 10.6807 1.32513 10.7974 1.33346 10.8932C1.3418 10.989 1.50013 11.3724 1.28346 11.5599C1.5043 11.489 1.52513 11.5182 1.72096 11.6474C1.44596 11.314 1.46263 11.3015 1.5043 11.1057C1.70013 11.1724 2.00013 11.1474 2.00013 11.0557C2.00013 10.9724 1.9168 10.8265 1.80013 10.8849C1.68346 10.9432 1.88346 11.0099 1.7418 11.0099C1.6043 11.0099 1.5043 10.9849 1.5043 10.8849C1.5043 10.7849 1.6418 10.6682 1.83763 10.6682C2.03346 10.6682 2.27513 10.7682 2.23763 11.1265C2.19596 11.489 1.0293 13.5015 1.0293 13.7432C1.0293 13.9932 1.24596 14.3057 1.82096 14.3057C2.19596 14.3349 2.33346 13.9432 2.4668 13.8099H2.46263Z" fill="#FFEC2D"/>
<path fill-rule="evenodd" clip-rule="evenodd" d="M2.46263 7.19255C2.60013 7.05922 2.71263 6.66755 3.08763 6.69255C3.66263 6.69255 3.8793 7.01338 3.8793 7.25922C3.8793 7.50505 2.71263 9.50922 2.67096 9.87588C2.6293 10.2342 2.87096 10.3342 3.0668 10.3342C3.2668 10.3342 3.4043 10.2217 3.4043 10.1217C3.4043 10.0217 3.3043 9.98838 3.1668 9.98838C3.0293 9.98838 3.22513 10.0634 3.10846 10.1217C2.9918 10.18 2.90846 10.0342 2.90846 9.94672C2.90846 9.86338 3.20846 9.83005 3.40846 9.89672C3.44596 9.70088 3.46263 9.68838 3.18763 9.35505C3.38763 9.48422 3.4043 9.51338 3.62513 9.43838C3.4043 9.63005 3.5668 10.0134 3.57513 10.105C3.58346 10.1967 3.53346 10.3217 3.44596 10.38C3.28763 10.5259 2.93763 10.53 2.7293 10.4384C2.4293 10.3009 2.41263 9.90505 2.4918 9.77172L3.62513 7.33422C3.68763 7.23422 3.5293 6.90088 3.17096 6.88838C2.79596 6.85922 2.6668 7.25505 2.60013 7.42588L3.11263 7.38422C3.11263 7.38422 3.13346 7.46755 3.11263 7.51755C2.84596 7.53422 2.60013 7.58422 2.60013 7.58422L2.5793 7.84255H2.8293L2.81263 7.95922C2.81263 7.95922 2.60013 7.94672 2.5793 7.95922C2.55846 7.97172 2.53763 8.22172 2.53763 8.22172C2.53763 8.22172 2.49596 8.23422 2.4543 8.23422C2.41263 8.23422 2.37096 8.22172 2.37096 8.22172C2.37096 8.22172 2.3543 7.97172 2.33346 7.95922C2.31263 7.94672 2.10013 7.95922 2.10013 7.95922L2.0793 7.84255H2.33346L2.31263 7.58422C2.31263 7.58422 2.06263 7.53422 1.80013 7.51755C1.78346 7.46755 1.80013 7.38838 1.80013 7.38838L2.31263 7.42588C2.24596 7.25505 2.1168 6.85922 1.7418 6.88422C1.38346 6.90088 1.22513 7.23422 1.28346 7.33422L2.4168 9.77172C2.49596 9.90505 2.4793 10.3009 2.1793 10.4384C1.97096 10.53 1.62096 10.5217 1.46263 10.38C1.37513 10.3217 1.32513 10.205 1.33346 10.1092C1.3418 10.0134 1.50013 9.63005 1.28346 9.44255C1.5043 9.51338 1.52513 9.48422 1.72096 9.35505C1.44596 9.68838 1.46263 9.70088 1.5043 9.89672C1.70013 9.83005 2.00013 9.85922 2.00013 9.94672C2.00013 10.03 1.9168 10.1759 1.80013 10.1175C1.68346 10.0634 1.88346 9.99255 1.7418 9.99255C1.6043 9.99255 1.5043 10.0175 1.5043 10.1175C1.5043 10.2175 1.6418 10.3342 1.83763 10.3342C2.03346 10.3342 2.27513 10.2342 2.23763 9.87588C2.19596 9.51338 1.0293 7.50505 1.0293 7.25922C1.0293 7.01338 1.24596 6.69672 1.82096 6.69672C2.19596 6.66755 2.33346 7.05922 2.4668 7.19672L2.46263 7.19255Z" fill="#FFEC2D"/>
<path fill-rule="evenodd" clip-rule="evenodd" d="M2.46263 6.19659C2.60013 6.32992 2.71263 6.72576 3.08763 6.69659C3.66263 6.69659 3.8793 6.37576 3.8793 6.12992C3.8793 5.88409 2.71263 3.87992 2.67096 3.51742C2.6293 3.15492 2.87096 3.05492 3.0668 3.05492C3.2668 3.05492 3.4043 3.17159 3.4043 3.27159C3.4043 3.37159 3.3043 3.40076 3.1668 3.40076C3.0293 3.40076 3.22513 3.32992 3.10846 3.27159C2.9918 3.21326 2.90846 3.35492 2.90846 3.44242C2.90846 3.52992 3.20846 3.55909 3.40846 3.49242C3.44596 3.68826 3.46263 3.70076 3.18763 4.03409C3.38763 3.90909 3.4043 3.87576 3.62513 3.95076C3.4043 3.76326 3.5668 3.37992 3.57513 3.28409C3.58346 3.18826 3.53346 3.06742 3.44596 3.00909C3.28763 2.86742 2.93763 2.85909 2.7293 2.95492C2.4293 3.08826 2.41263 3.48826 2.4918 3.61742L3.62513 6.05909C3.68763 6.15909 3.5293 6.49242 3.17096 6.50909C2.79596 6.53409 2.6668 6.14242 2.60013 5.96742L3.11263 6.00909C3.11263 6.00909 3.13346 5.92576 3.11263 5.87576C2.94077 5.86444 2.76967 5.84357 2.60013 5.81326L2.5793 5.55076H2.8293L2.81263 5.43409C2.81263 5.43409 2.60013 5.45076 2.5793 5.43409C2.55846 5.42159 2.53763 5.17576 2.53763 5.17576C2.53763 5.17576 2.49596 5.15909 2.4543 5.15909C2.41263 5.15909 2.37096 5.17576 2.37096 5.17576C2.37096 5.17576 2.3543 5.42159 2.33346 5.43409C2.31263 5.45076 2.10013 5.43409 2.10013 5.43409L2.0793 5.55076H2.33346L2.31263 5.81326C2.31263 5.81326 2.06263 5.85909 1.80013 5.87576C1.78346 5.92992 1.80013 6.00909 1.80013 6.00909L2.31263 5.96742C2.24596 6.14242 2.1168 6.53409 1.7418 6.50909C1.38346 6.49242 1.22513 6.15909 1.28346 6.05909L2.4168 3.61742C2.49596 3.48826 2.4793 3.08826 2.1793 2.95076C1.97096 2.85909 1.62096 2.86742 1.46263 3.00909C1.37513 3.06742 1.32513 3.18409 1.33346 3.27992C1.3418 3.37576 1.50013 3.76326 1.28346 3.94659C1.5043 3.87576 1.52513 3.90492 1.72096 4.03409C1.44596 3.70076 1.46263 3.68826 1.5043 3.49242C1.7043 3.55909 2.00013 3.53409 2.00013 3.44242C2.00013 3.35909 1.9168 3.21326 1.80013 3.27159C1.68346 3.32992 1.88346 3.40076 1.7418 3.40076C1.6043 3.40076 1.5043 3.37159 1.5043 3.27159C1.5043 3.17159 1.6418 3.05492 1.83763 3.05492C2.03346 3.05492 2.2793 3.15492 2.23763 3.51326C2.19596 3.87576 1.0293 5.88826 1.0293 6.12992C1.0293 6.37992 1.24596 6.69659 1.82096 6.69659C2.19596 6.72576 2.33346 6.32992 2.4668 6.19659H2.46263Z" fill="#FFEC2D"/>
<path fill-rule="evenodd" clip-rule="evenodd" d="M2.5082 1.04247C2.6457 0.909134 2.59987 0.6883 2.97904 0.717467C3.55404 0.717467 3.5707 1.06747 3.5707 1.3133C3.5707 1.55913 2.7082 1.9008 2.66654 2.2633C2.62487 2.6258 2.86654 2.72163 3.06654 2.72163C3.26237 2.72163 3.39987 2.60913 3.39987 2.50913C3.39987 2.40913 3.3082 2.3758 3.16654 2.3758C3.02487 2.3758 3.22904 2.44663 3.1082 2.5008C2.98737 2.55497 2.9082 2.41747 2.9082 2.33413C2.9082 2.24247 3.2082 2.2133 3.4082 2.27997C3.44987 2.08413 3.46654 2.07163 3.18737 1.7383C3.38737 1.86747 3.40404 1.89663 3.62487 1.82163C3.40404 2.0133 3.5707 2.39663 3.57487 2.49247C3.57904 2.5883 3.5332 2.70497 3.44987 2.7633C3.2832 2.91747 2.93737 2.91747 2.72904 2.8258C2.42487 2.69247 2.4082 2.29247 2.48737 2.15913L3.3332 1.30497C3.39154 1.20497 3.41654 0.921634 3.0582 0.909134C2.6832 0.879967 2.54987 1.39247 2.4832 1.5633C2.3957 1.3758 2.2957 0.859134 1.91654 0.8883C1.5582 0.9008 1.49154 1.17997 1.54987 1.28413L2.41237 2.15913C2.4957 2.29247 2.47904 2.69247 2.17487 2.8258C1.96654 2.92163 1.6207 2.9133 1.46237 2.76747C1.3707 2.70913 1.3207 2.59663 1.32904 2.49663C1.33737 2.39663 1.49987 2.01747 1.2832 1.82997C1.49987 1.9008 1.5207 1.87163 1.71654 1.74663C1.44154 2.0758 1.46237 2.0883 1.49987 2.2883C1.69987 2.22163 1.99987 2.24663 1.99987 2.33413C1.99987 2.42163 1.91654 2.56747 1.7957 2.50913C1.67904 2.4508 1.87904 2.37997 1.73737 2.37997C1.59987 2.37997 1.49987 2.40913 1.49987 2.50497C1.49987 2.6008 1.63737 2.7258 1.83737 2.7258C2.03737 2.7258 2.27487 2.6258 2.2332 2.2633C2.19154 1.9008 1.31654 1.50913 1.31654 1.2633C1.31654 1.0133 1.37487 0.717467 1.94987 0.717467C2.32487 0.6883 2.3707 0.909134 2.5082 1.04247Z" fill="#FFEC2D"/>
<path d="M18.3971 9.07876C18.3971 7.09795 16.7027 5.49219 14.6126 5.49219C12.5225 5.49219 10.8281 7.09795 10.8281 9.07876C10.8281 11.0596 12.5225 12.6653 14.6126 12.6653C16.7027 12.6653 18.3971 11.0596 18.3971 9.07876Z" fill="#FFEC2D"/>
<path fill-rule="evenodd" clip-rule="evenodd" d="M14.4349 3.3521C14.3993 3.3521 14.2303 4.54392 14.168 4.81075C14.1058 5.4111 14.9685 5.38887 14.8262 4.78851L14.4349 3.34766V3.3521ZM14.7373 14.9056C14.7684 14.9056 15.0263 13.7271 15.1108 13.4648C15.2131 12.8733 14.3504 12.8422 14.4438 13.447L14.7373 14.9056ZM8.70703 9.05326C8.70703 9.08439 9.94777 9.33343 10.2235 9.41348C10.8461 9.51576 10.8905 8.70194 10.2502 8.79089L8.70703 9.05771V9.05326ZM20.7898 9.19557C20.7898 9.16444 19.5357 8.95988 19.2555 8.88872C18.6285 8.81312 18.624 9.62694 19.2555 9.51576L20.7898 9.19557ZM9.9789 5.27324C9.95666 5.29548 10.7749 6.22047 10.9395 6.44727C11.3664 6.89198 11.9312 6.26939 11.3664 5.96699L9.9789 5.27769V5.27324ZM19.3667 12.8778C19.3889 12.8555 18.4906 12.0017 18.3038 11.7927C17.8369 11.3835 17.3344 12.0462 17.9214 12.3041L19.3667 12.8822V12.8778ZM11.8511 3.98359C11.8244 3.99693 12.2069 5.14428 12.2691 5.41555C12.4826 5.98033 13.2564 5.61122 12.8562 5.12649L11.8556 3.98359H11.8511ZM17.3255 14.3186C17.3566 14.3053 17.0587 13.1357 17.0186 12.8644C16.8452 12.2863 16.0492 12.5976 16.4094 13.1135L17.3299 14.3142L17.3255 14.3186ZM18.6729 4.78406C18.6463 4.76183 17.659 5.52228 17.4189 5.67348C16.943 6.07372 17.5879 6.61626 17.9169 6.08706L18.6729 4.78406ZM10.5348 13.3981C10.557 13.4203 11.6021 12.731 11.8511 12.5931C12.3536 12.2285 11.7533 11.6415 11.3842 12.1484L10.5392 13.3981H10.5348ZM8.9783 6.98982C8.96496 7.0165 10.0456 7.64354 10.2813 7.80808C10.8372 8.09714 11.1618 7.34114 10.5259 7.22107L8.9783 6.98982ZM20.2606 11.3657C20.2739 11.3391 19.2377 10.6409 19.0154 10.463C18.4817 10.1339 18.1037 10.8677 18.7308 11.0278L20.2606 11.3657ZM16.6762 3.67674C16.6451 3.66785 16.0269 4.71736 15.8624 4.94416C15.8627 5.01659 15.8857 5.0871 15.9281 5.14581C15.9705 5.20452 16.0302 5.24849 16.0989 5.27154C16.1675 5.29459 16.2417 5.29557 16.3109 5.27434C16.3802 5.25311 16.441 5.21074 16.485 5.15317L16.6762 3.67674ZM12.5004 14.541C12.5315 14.5543 13.2253 13.5448 13.4032 13.3269C13.7278 12.8111 12.9407 12.482 12.7939 13.0779L12.5004 14.541ZM9.0539 11.4591C9.06724 11.4858 10.2991 11.1923 10.5881 11.1478C11.193 10.9789 10.855 10.2317 10.3213 10.5786L9.0539 11.4591ZM20.265 6.89198C20.2561 6.8653 19.0065 7.07431 18.7174 7.10099C18.0948 7.22996 18.3839 7.99931 18.9398 7.68801L20.265 6.89198Z" fill="#FFEC2D"/>
<path fill-rule="evenodd" clip-rule="evenodd" d="M15.6616 3.42632C15.6305 3.42187 15.2124 4.55588 15.0879 4.80492C14.9056 5.38304 15.755 5.52535 15.7416 4.91165L15.666 3.42188L15.6616 3.42632ZM13.5048 14.8064C13.5359 14.8153 14.0384 13.708 14.1807 13.4634C14.4031 12.9031 13.567 12.7074 13.5359 13.3166L13.5003 14.8064H13.5048ZM13.0734 3.5375C13.0423 3.54639 13.1579 4.74711 13.1579 5.02283C13.2424 5.61429 14.074 5.40972 13.7983 4.85828L13.0734 3.5375ZM16.0974 14.7397C16.1285 14.7353 16.0974 13.5301 16.1196 13.2544C16.0796 12.654 15.2302 12.8052 15.4704 13.3744L16.093 14.7397H16.0974ZM10.9299 4.53365C10.9032 4.55143 11.4947 5.61429 11.6059 5.86777C11.926 6.38808 12.6153 5.8989 12.1306 5.48532L10.9299 4.53365ZM18.2587 13.7791C18.2854 13.7613 17.7695 12.6585 17.6806 12.4005C17.4004 11.8624 16.68 12.3071 17.1291 12.7474L18.2587 13.7791ZM9.36452 6.02787C9.34673 6.05455 10.3029 6.84613 10.503 7.0507C10.9966 7.42425 11.4547 6.73051 10.8498 6.5126L9.36452 6.02787ZM19.7796 12.2404C19.7974 12.2138 18.9035 11.3599 18.7167 11.1465C18.2542 10.7418 17.7473 11.4044 18.3343 11.6623L19.7796 12.2404ZM8.67967 7.89119C8.67078 7.92232 9.84926 8.37148 10.1072 8.50044C10.7031 8.70056 10.8943 7.90453 10.245 7.88675L8.67967 7.89119ZM20.5712 10.4616C20.5845 10.4349 19.4416 9.91017 19.1926 9.76342C18.6145 9.52327 18.361 10.306 19.0058 10.3682L20.5712 10.4616ZM8.63965 10.1814C8.6441 10.2081 9.91596 10.1903 10.205 10.2126C10.8365 10.1814 10.6853 9.37652 10.0805 9.59443L8.63965 10.1814ZM20.6557 8.18025C20.6557 8.14912 19.3838 8.08242 19.0992 8.04239C18.4633 8.0335 18.5566 8.84732 19.1748 8.66499L20.6557 8.17581V8.18025ZM9.72918 12.5562C9.74697 12.5829 10.8854 12.0403 11.1523 11.938C11.7037 11.649 11.1967 10.9864 10.7565 11.4355L9.72918 12.5562ZM19.615 5.78328C19.5973 5.75659 18.4277 6.22354 18.1475 6.30803C17.5738 6.56152 18.0319 7.25526 18.5033 6.83724L19.615 5.78328ZM11.5792 14.1305C11.6059 14.1438 12.4197 13.2188 12.6242 13.0231C13.0111 12.5473 12.2685 12.1337 12.0506 12.7118L11.5792 14.1305ZM17.7917 4.17788C17.7695 4.16009 16.889 5.02727 16.6711 5.2096C16.2531 5.65876 16.9646 6.12125 17.2225 5.56092L17.7873 4.17788H17.7917Z" fill="#FFEC2D"/>
<path fill-rule="evenodd" clip-rule="evenodd" d="M8.82609 11.4621C8.89403 11.6914 8.90374 12.9758 10.2722 14.2143C11.6309 15.4436 13.9602 15.7188 13.9602 15.7188C13.9602 15.7188 13.9699 15.8931 13.8049 15.9023C13.6399 15.9206 12.8441 15.7646 12.4462 15.6454C12.058 15.5353 11.7086 15.3335 11.6698 15.3426C11.6212 15.361 11.5436 15.4894 11.4271 15.4711C11.3107 15.4527 10.7477 14.9023 10.4954 14.7555C9.99069 14.3432 9.54386 13.8715 9.16578 13.3519C8.89403 12.9391 8.82609 12.6639 8.73875 12.6639C8.6514 12.6639 8.33112 12.8657 8.33112 12.8657C8.33112 12.8657 8.03996 12.4529 7.78762 11.7924C7.52558 11.1318 7.5547 10.7465 7.61293 10.719C7.68087 10.6915 7.68087 11.2052 7.87497 11.6731C8.06908 12.1501 8.34083 12.2969 8.34083 12.2969C8.34083 12.2969 8.16613 12.0492 8.03026 11.4346C7.89438 10.8199 7.83615 10.2236 7.9332 10.0401C8.03026 9.85666 8.11761 9.80162 8.12731 9.81079C8.14672 9.82914 7.96232 10.0952 8.08849 10.8016C8.21466 11.508 8.55435 12.1043 8.63199 12.0767C8.70963 12.0492 8.58346 11.9024 8.53493 11.4896C8.48641 11.0768 8.58346 10.8199 8.69022 10.7832C8.73875 10.7465 8.81639 11.2419 8.82609 11.4621ZM7.87497 12.6363C7.61293 12.407 7.20531 11.6089 7.11796 11.6456C7.02091 11.6914 7.77792 12.8382 7.79733 12.9299C7.81674 13.04 7.98173 13.3519 7.85556 13.306C7.72939 13.2602 6.8268 12.3611 6.93356 12.5354C7.04032 12.7097 7.71969 13.4987 7.68087 13.5446C7.64204 13.5904 7.11796 13.1042 7.09855 13.1684C7.08884 13.2235 7.61293 13.7005 7.60322 13.7556C7.59352 13.8106 7.26354 13.4528 7.26354 13.5262C7.26354 13.5996 7.60322 13.9574 7.60322 14.0124C7.60322 14.0675 7.31206 13.7556 7.40912 13.9207C7.49647 14.1042 7.7488 14.2601 7.7391 14.3152C7.72939 14.3702 7.52558 14.2418 7.52558 14.2693C7.52558 14.2968 7.90409 14.4253 7.99144 14.5262C8.08849 14.6271 8.70963 15.306 9.17549 15.6454C9.64134 15.9848 10.9807 16.5811 11.0777 16.5811C11.1651 16.5811 11.3009 16.3976 11.2718 16.3243C11.2427 16.2509 9.9325 15.8289 9.5734 15.517C9.2046 15.205 8.31171 14.4528 8.23407 14.4161C8.16613 14.3702 7.96232 14.3886 7.96232 14.3427C7.96232 14.2968 8.22437 14.3702 8.20495 14.3427C8.19525 14.3152 7.84586 14.1684 7.85556 14.1409C7.87497 14.1133 8.0982 14.1959 8.0982 14.1684C8.0982 14.1409 7.69057 13.9299 7.70998 13.884C7.71969 13.8381 8.01085 14.0124 8.01085 13.9757C8.01085 13.9574 7.62263 13.7005 7.63234 13.6546C7.64204 13.6088 7.9332 13.8565 7.9235 13.8014C7.91379 13.7464 7.69057 13.4345 7.69057 13.3978C7.69057 13.3519 8.03996 13.7097 8.07878 13.6363C8.09819 13.5721 7.95262 12.9758 7.96232 12.9666C7.97203 12.9574 8.22436 13.095 8.26318 13.0125C8.31171 12.9207 8.08849 12.8015 7.87497 12.6363ZM12.3491 17.1499C12.1647 17.1774 12.0774 17.1132 12.1841 16.9664C12.3297 16.9664 12.7179 16.8472 12.8538 16.7921C12.9897 16.7371 13.1353 16.6637 13.2517 16.5628C13.3682 16.4435 13.4458 16.627 13.3779 16.7279C13.3294 16.7921 13.1061 16.9114 12.9411 16.9756C12.6985 17.049 12.485 17.1591 12.3491 17.1499ZM13.5623 16.682C13.4361 16.5536 13.5429 16.4619 13.7273 16.3609C13.999 16.2233 13.9214 16.0307 14.2708 15.8747C14.4261 15.783 16.6001 14.9573 17.3085 14.517C18.017 14.0767 20.0066 12.6547 20.5404 11.6731C21.0645 10.7007 20.8122 10.6273 20.8898 10.5906C20.9577 10.5447 21.0354 10.7282 21.0257 10.9484C21.0063 11.1594 20.8316 11.8015 20.8898 11.8657C20.948 11.93 21.6856 11.3612 21.9962 10.6731C22.3068 9.98509 22.5397 9.26953 22.6853 9.26953C22.8406 9.26953 22.4329 10.4438 22.1709 10.9025C21.9186 11.3612 21.6177 11.5905 21.6856 11.6914C21.7633 11.7832 22.5203 11.1869 22.7823 10.7465C23.0347 10.297 23.2773 9.90253 23.3258 9.98509C23.2486 10.5225 23.0245 11.0316 22.6756 11.4621C22.268 11.9024 21.7827 12.2235 21.8603 12.2877C21.9283 12.3611 22.4815 12.4345 23.0541 12.0676C23.6364 11.6914 23.6946 11.1502 23.7626 11.1777C23.8402 11.2052 23.6946 11.9483 23.1414 12.407C22.5882 12.8657 21.8603 12.9116 21.8797 13.0125C21.9186 13.1042 23.4617 12.5905 23.4326 12.7097C23.4035 12.8198 21.4333 13.5537 21.4139 13.6271C21.4139 13.6822 21.7536 13.7005 22.2874 13.5813C22.8115 13.4712 23.3161 13.0767 23.3841 13.1684C23.4035 13.2969 23.0056 13.6088 22.4038 13.7556C21.7924 13.9023 21.4915 14.095 21.4721 14.1409C21.4624 14.1867 22.5591 14.0124 22.5591 14.0675C22.5591 14.1225 21.1227 14.3886 21.113 14.462C21.0936 14.5262 22.4718 14.1959 22.4524 14.2785C22.4135 14.3427 20.5792 14.8564 20.5986 14.884C20.6083 14.9206 22.1321 14.572 22.103 14.6271C22.0641 14.6913 19.5408 15.361 19.5213 15.4069C19.5019 15.4436 21.7536 14.9298 21.7342 14.9757C21.7148 15.0216 20.5695 15.2876 20.5695 15.3151C20.5695 15.3426 21.4915 15.1775 21.4721 15.2234C21.4624 15.2601 19.1428 15.8197 19.0943 15.9023C19.0458 15.994 20.2978 15.6729 20.2784 15.838C20.259 16.0032 17.59 16.8472 17.5803 16.6912C17.5609 16.5353 19.2011 16.1408 19.1914 16.0949C19.172 16.049 18.25 16.1866 18.2305 16.1041C18.2208 16.0123 18.842 15.8289 18.7935 15.7922C18.7449 15.7463 18.2791 15.9206 18.3179 15.8197C18.3664 15.7188 19.2496 15.3335 19.2302 15.3059C19.2205 15.2784 18.9099 15.3977 18.939 15.3059C18.9779 15.205 20.851 14.6913 20.8219 14.6271C20.7927 14.572 19.9581 14.7555 19.8804 14.7739C19.8513 14.7188 21.0451 14.2968 21.0257 14.2234C20.9869 14.1592 20.3851 14.4711 20.3463 14.3886C20.3269 14.2968 21.4042 13.9023 21.3362 13.8381C21.2683 13.7739 20.783 14.0033 20.7151 13.939C20.6472 13.8748 21.7342 13.1684 21.5692 13.1501C21.4042 13.1409 21.2004 13.3703 21.181 13.2235C21.2004 13.04 22.0253 12.7373 21.8409 12.5905C21.5498 12.5079 20.5695 12.6547 20.1619 12.884C19.7543 13.1134 18.3955 14.3886 18.0656 14.5904C17.7356 14.783 16.6098 15.2326 16.3962 15.3243C16.0663 15.4344 16.008 15.5995 15.6683 15.7646C15.0569 15.9206 15.0666 16.0949 14.7755 16.1958C14.6687 16.2233 13.572 16.7187 13.5623 16.682ZM12.0288 17.3242C11.8444 17.4159 11.6795 17.6361 11.7862 17.7279C11.8444 17.8379 12.0288 17.4802 12.1744 17.4985L12.9509 17.5352C13.3682 17.5627 13.572 17.4526 13.8049 17.471C14.0378 17.4893 14.5522 17.3517 14.7949 17.3517C15.0375 17.3517 15.086 17.3792 15.1054 17.2783C15.1345 17.1866 14.3484 17.2508 13.999 17.2416C13.6496 17.2233 13.2129 17.3059 12.9509 17.3059C12.7082 17.2967 12.2909 17.2233 12.0288 17.3242Z" fill="#FFEC2D"/>
<path d="M13.1933 17.2157C13.1933 17.1397 13.1194 17.0781 13.0283 17.0781C12.9371 17.0781 12.8633 17.1397 12.8633 17.2157C12.8633 17.2917 12.9371 17.3533 13.0283 17.3533C13.1194 17.3533 13.1933 17.2917 13.1933 17.2157Z" fill="#FFEC2D"/>
<path fill-rule="evenodd" clip-rule="evenodd" d="M17.0661 16.9487C17.2311 16.9212 17.6775 17.068 17.9881 17.1322C18.551 17.3432 19.5992 17.2423 19.5992 17.3432C19.5992 17.4441 19.5312 17.5634 19.2886 17.5817C19.046 17.6001 18.4345 17.49 18.4539 17.49C18.4733 17.49 18.9392 17.701 18.8033 17.756C18.6675 17.8111 18.2695 17.6368 18.2016 17.6826C18.1337 17.7285 18.5704 17.8111 18.4928 17.8386C18.4345 17.8661 18.1337 17.8019 18.0366 17.8111C17.9396 17.8294 18.1143 17.9303 17.9978 17.967C17.8813 18.0129 17.6872 17.912 17.6096 17.9395C17.5222 17.967 17.7843 18.123 17.6678 18.1413C17.5513 18.1597 17.2796 18.0679 17.1243 18.0496C16.969 18.0496 17.2699 18.1964 17.1728 18.2147C17.0758 18.2239 16.804 18.0954 16.7361 18.0954C16.6682 18.0954 16.7361 18.2789 16.639 18.2789C16.542 18.2789 16.4255 18.123 16.3673 18.123C16.3091 18.123 16.3673 18.3064 16.2702 18.3064C16.1732 18.3064 16.1344 18.1138 16.0567 18.123C15.9597 18.1413 16.0567 18.3707 15.9209 18.3523C15.7947 18.3431 15.7753 18.1138 15.6685 18.123C15.5715 18.1413 15.6879 18.3523 15.5909 18.3523C15.4938 18.3523 15.4744 18.1413 15.3774 18.123C15.2803 18.1138 15.3191 18.3248 15.2609 18.3248C15.2027 18.3248 15.1444 18.123 15.1056 18.123C15.0765 18.123 15.1056 18.3248 14.9891 18.3064C14.8727 18.2881 14.8727 18.0863 14.8436 18.0954C14.8047 18.1138 14.8047 18.2606 14.7271 18.2606C14.6495 18.2606 14.6398 18.1138 14.6106 18.1321C14.5718 18.1413 14.4553 18.3248 14.3777 18.2973C14.2904 18.2697 14.3971 18.123 14.3583 18.123C14.3195 18.123 14.2224 18.2239 14.1642 18.2147C14.106 18.2055 14.1642 18.0863 14.1448 18.0863C14.1254 18.0863 13.9798 18.1597 13.9119 18.1597C13.8439 18.1597 13.6595 18.2514 13.611 18.1688C13.5625 18.0771 13.7372 18.0771 13.776 17.9945C13.8051 17.912 13.6789 17.6643 13.8148 17.5817C13.941 17.49 14.3583 17.701 14.9794 17.5542C16.1053 17.2698 16.9787 16.9395 17.0661 16.9487Z" fill="#FFEC2D"/>
</g>
<defs>
<clipPath id="clip0_11149_81547">
<rect width="26.6667" height="20" fill="white" transform="translate(0 0.5)"/>
</clipPath>
</defs>
</svg>
