<svg width="27" height="21" fill="none" xmlns="http://www.w3.org/2000/svg"><g clip-path="url(#clip0_11149_81515)"><mask id="a" style="mask-type:alpha" maskUnits="userSpaceOnUse" x="0" y="0" width="27" height="21"><path d="M0 .5h26.667v20H0V.5z" fill="#fff"/></mask><g mask="url(#a)" fill-rule="evenodd" clip-rule="evenodd"><path d="M0 .5h40.004v13.285H0V.5z" fill="#B20000"/><path d="M0 13.785h40.004V20.5H0v-6.715z" fill="#429F00"/><path d="M0 .5h4.43v20H0V.5z" fill="#fff"/><path d="M.21.84h.212v.34H.21V.84zm.634 0h.633v.34H.844V.84zm.21-.34h.212v.34h-.211V.5zM2.11.5h.21v.34h-.21V.5zm.843.34h.633v.34h-.633V.84zM3.164.5h.211v.34h-.21V.5zm-2.531.68h.422v.336H.633V1.18zm.633 0h.422v.336h-.422V1.18zm1.476 0h.422v.336h-.422V1.18zm.633 0h.422v.336h-.422V1.18zm-2.953.336h.422v.34H.422v-.34zm1.055 0h.422v.34h-.422v-.34zm1.054 0h.422v.34h-.421v-.34zm1.055 0h.422v.34h-.422v-.34zM4.008.84h.211v.34h-.21V.84zM.211 1.855h.422v.34H.21v-.34zm1.477 0h.422v.34h-.422v-.34zm2.11 0h.421v.34h-.422v-.34zM.421 2.871h.422v.34H.422v-.34zm.21.34h.423v.34H.633v-.34zm.845-.336h.422v.336h-.422v-.336zm-.211.336h.422v.34h-.422v-.34zm-.422.34h.633v.34H.844v-.34z" fill="#B20000"/><path d="M1.055 3.89h.21v.34h-.21v-.34zm1.477-1.015h.421v.336h-.421v-.336zm.21.336h.422v.34h-.422v-.34zm.844-.336h.422v.336h-.422v-.336zm-.21.336h.421v.34h-.422v-.34zm-.423.34h.633v.34h-.633v-.34zm.211.34h.211v.34h-.21v-.34zM2.11 3.547h.21v.34h-.21v-.34zm-2.11 0h.211v.34H0v-.34zm4.22 0h.21v.34h-.21v-.34zM1.054 5.242h.21v.34h-.21v-.34zm-.211.344h.633v.336H.844v-.336zm-.211.336h1.055v.34H.633v-.34zm2.531-.676h.211v.34h-.21v-.34zm-.21.34h.632v.336h-.633v-.336zm-.212.336h1.055v.34H2.742v-.34zm.211 1.695h1.055v.34H2.953v-.34zm-.421-1.355h1.476v.34H2.532v-.34zm-2.11 0h1.477v.34H.422v-.34zm.21 1.695h.634v.34H.633v-.34zm-.21-.34h1.055v.34H.422v-.34zm2.953-.672H4.43v.34H3.375v-.34zm-.21 1.016h.632v.34h-.633v-.34z" fill="#B20000"/><path d="M.844 8.297h.21v.34h-.21v-.34zm2.531 0h.211v.34h-.21v-.34zM0 6.94h1.055v.34H0v-.34zm1.899.676h.633v.34h-.633v-.34zm.21.344h.212v.34H2.11v-.34zm-.632-1.016h1.476v.34H1.477v-.34zm.844-5.09h.421v.34h-.421v-.34zm-.422.34h.633v.34h-.633v-.34zm-.211.34h.422v.336h-.422v-.336zm.633 0h.421v.336h-.421v-.336zM0 2.195h.422v.34H0v-.34zm.211.34h.422v.336H.21v-.336zm3.797-.34h.422v.336h-.422v-.336zm-.21.336h.421v.336h-.422v-.336zM0 5.578h.211v.34H0v-.34zm4.22 0h.21v.34h-.21v-.34zM1.898 8.293h.633v.34h-.633v-.34zm-.211.34h.422v.336h-.422v-.336zm.633 0h.421v.336H2.32v-.336zm-.844.336h.422v.34h-.422v-.34zm1.055 0h.421v.34h-.421v-.34zm-1.266.34h.422v.34h-.422v-.34zm1.476 0h.422v.34h-.422v-.34zm-1.687.343h.422v.34h-.422v-.34zm1.898 0h.422v.34h-.422v-.34zm-2.32.34h.633v.34H.633v-.34zm2.531 0h.633v.34h-.633v-.34zm.422-.34h.422v.34h-.422v-.34zm.211-.34h.422v.34h-.422v-.34zm.211-.34h.422v.34h-.422v-.34zm-3.586.68h.422v.34H.422v-.34zm-.211-.34h.422v.34H.21v-.34zM0 8.977h.422v.34H0v-.34zm.844 1.359h.21v.336h-.21v-.336zm2.531 0h.211v.336h-.21v-.336zM2.11 9.32h.21v.336h-.21V9.32zm-.633 1.016h.21v.336h-.21v-.336zm1.265 0h.211v.336h-.21v-.336zm-.632 0h.21v.336h-.21v-.336zm-2.11 0h.211v.336H0v-.336zm4.22 0h.21v.336h-.21v-.336zm-2.11-4.75h.21v.336h-.21v-.336zm-1.055-3.39h.21v.34h-.21v-.34zm2.11 0h.21v.34h-.21v-.34zm-1.266 2.37h.633v.34h-.633v-.34zm-.422.34h.633v.34h-.633v-.34zm.21.34H1.9v.34h-.211v-.34zm-.421-.68h.422v.34h-.422v-.34zm.21-.336h.634v.336h-.633V4.23zm.212-.34h.21v.34h-.21v-.34zm.633.34h.632v.336h-.632V4.23zm.21-.34h.211v.34h-.21v-.34zm.211.676h.422v.34h-.422v-.34zm-.421.34h.632v.34h-.632v-.34zm.21.34h.211v.34h-.21v-.34zm.844-.68h.422v.34h-.422v-.34zm.211-.336h.633v.336h-.633V4.23zm.422.336h.422v.34h-.422v-.34zm-.422.34h.633v.34h-.633v-.34zm.211.34h.211v.34h-.21v-.34zm0-1.355h.211v.34h-.21v-.34zM0 4.562h.422v.34H0v-.34zm.211-.335h.633v.335H.21v-.335zm.422.335h.422v.34H.633v-.34zm-.422.34h.633v.34H.21v-.34z" fill="#B20000"/><path d="M.422 5.246h.21v.34h-.21v-.34zm0-1.355h.21v.34h-.21v-.34zM.21 6.6h.844v.34H.21V6.6zm1.055 0h.844v.34h-.844V6.6zm1.055 0h.843v.34H2.32V6.6zm1.054 0h.844v.34h-.844V6.6zm-1.687.68h1.054v.336H1.688V7.28zm-1.477 0h1.055v.336H.21V7.28zm2.953 0H4.22v.336H3.164V7.28zM4.22 8.637h.211v.336h-.21v-.336zm-4.22 0h.211v.336H0v-.336zM.211 20.16h.21v-.336h-.21v.336zm.633 0h.633v-.336H.844v.336zm.21.34h.212v-.34h-.211v.34zm1.056 0h.21v-.34h-.21v.34zm.843-.34h.633v-.34h-.633v.34zm.211.34h.211v-.34h-.21v.34zm-2.531-.68h.422v-.336H.633v.336zm.633 0h.422v-.336h-.422v.336zm1.476 0h.422v-.336h-.422v.336zm.633 0h.422v-.336h-.422v.336zm-1.898-.336h.422v-.34h-.422v.34zm1.055 0h.421v-.34h-.421v.34zm1.054 0h.422v-.34h-.422v.34zm.422.676h.211v-.34h-.21v.34zM.211 19.145h.422v-.34H.21v.34zm1.477 0h.422v-.34h-.422v.34zm2.11 0h.421v-.34h-.422v.34zM.421 18.129h.422v-.34H.422v.34zm.21-.34h.423v-.34H.633v.34zm.845.34h.422v-.34h-.422v.34zm-.211-.34h.422v-.34h-.422v.34zm-.422-.34h.633v-.34H.844v.34zm.21-.34h.212v-.336h-.211v.336zm1.478 1.016h.421v-.336h-.421v.336zm.21-.336h.422v-.34h-.422v.34zm.844.34h.422v-.34h-.422v.34zm-.21-.34h.421v-.34h-.422v.34zm-.423-.34h.633v-.34h-.633v.34zm.211-.34h.211v-.336h-.21v.336zm-1.054.344h.21v-.34h-.21v.34zm-2.11 0H.21v-.34H0v.34zm4.22 0h.21v-.34h-.21v.34zm-3.165-1.695h.21v-.34h-.21v.34zm-.211-.344h.633v-.336H.844v.336zm-.211-.336h1.055v-.34H.633v.34zm2.531.676h.211v-.34h-.21v.34z" fill="#B20000"/><path d="M2.953 15.414h.633v-.336h-.633v.336zm-.21-.336h1.054v-.34H2.742v.34zm.21-1.695h1.055v-.344H2.953v.344zm-.421 1.355h1.476v-.34H2.532v.34zm-2.11 0h1.477v-.34H.422v.34zm.21-1.695h.634v-.34H.633v.34zm-.21.34h1.055v-.344H.422v.344zm2.953.672H4.43v-.34H3.375v.34zm-.21-1.016h.632v-.34h-.633v.34zM0 14.055h1.055v-.34H0v.34zm1.899-.676h.633v-.34h-.633v.34zm.21-.34h.212v-.34H2.11v.34zm-.632 1.016h1.476v-.34H1.477v.34zm.844 5.086h.421v-.34h-.421v.34zm-.422-.34h.633v-.332h-.633v.332zm-.211-.34h.422v-.34h-.422v.34zm.633 0h.421v-.34h-.421v.34zM0 18.805h.422v-.336H0v.336zm.211-.34h.422v-.336H.21v.336zm3.797.34h.422v-.336h-.422v.336zm-.21-.34h.421v-.336h-.422v.336zM0 15.422h.211v-.34H0v.34zm4.22 0h.21v-.34h-.21v.34zm-2.532-3.055h.422v-.336h-.422v.336zm.633 0h.421v-.336h-.421v.336zm-.844-.336h.422v-.34h-.422v.34zm1.055 0h.421v-.34h-.421v.34zm-1.266-.34h.422v-.34h-.422v.34zm1.476 0h.422v-.34h-.422v.34zm-1.687-.343h.422v-.34h-.422v.34zm1.898 0h.422v-.34h-.422v.34zm-2.32-.34h.633v-.34H.633v.34zm2.531 0h.633v-.34h-.633v.34zm.422.34h.422v-.34h-.422v.34zm.211.34h.422v-.34h-.422v.34zm.211.34h.422v-.34h-.422v.34zm-3.586-.68h.422v-.34H.422v.34zm-.211.34h.422v-.34H.21v.34zM0 12.023h.422v-.34H0v.34zm.844-1.359h.21v-.336h-.21v.336zM2.11 11.68h.21v-.336h-.21v.336zm0 3.73h.21v-.336h-.21v.336zM1.055 18.8h.21v-.331h-.21v.332zm2.11 0h.21v-.331h-.21v.332zm-1.266-2.363h.633v-.34h-.633v.34zm-.422-.34h.633v-.34h-.633v.34zm.21-.34H1.9v-.339h-.211v.34zm-.421.68h.422v-.34h-.422v.34zm.21.332h.634v-.331h-.633v.332zm.212.34h.21v-.336h-.21v.336zm.633-.34h.632v-.331h-.632v.332zm.21.34h.211v-.336h-.21v.336zm.211-.675h.422v-.34h-.422v.34zm-.421-.34h.632v-.34h-.632v.34zm.21-.34h.211v-.34h-.21v.34zm.844.684h.422v-.34h-.422v.34zm.211.332h.633v-.332h-.633v.332zm.422-.336h.422v-.34h-.422v.34zm-.422-.34h.633v-.34h-.633v.34zm.211-.34h.211v-.34h-.21v.34zm0 1.355h.211v-.336h-.21v.336zM0 16.437h.422v-.34H0v.34zm.211.332h.633v-.331H.21v.332z" fill="#B20000"/><path d="M.633 16.434h.422v-.34H.633v.34zm-.422-.34h.633v-.34H.21v.34zm.21-.34h.212v-.34H.422v.34zm0 1.355h.212v-.336H.422v.336zm-.21-2.71h.844v-.34H.21v.34zm1.055 0h.844v-.34h-.844v.34zm1.055 0h.843v-.34h-.843v.34zm1.054 0h.844v-.34h-.844v.34zm-1.687-.68h1.054v-.336H1.688v.336zm-1.477 0h1.055v-.336H.21v.336zm2.953 0H4.22v-.336H3.164v.336zm1.055-1.352h.211v-.344h-.21v.344zm-4.219 0h.211v-.344H0v.344zm1.899-1.699h.21v.34H1.9v-.34zm.422 0h.21v.34h-.21v-.34zm0-.676h.21v.34h-.21v-.34zm-.422 0h.21v.34H1.9v-.34zM.422 19.144h.422v.34H.422v-.34zm2.953-6.44h.211v-.34h-.21v.34zm-2.531 0h.21v-.34h-.21v.34zm1.055-.34h.633v.34h-.633v-.34z" fill="#B20000"/></g></g><defs><clipPath id="clip0_11149_81515"><path fill="#fff" transform="translate(0 .5)" d="M0 0h26.667v20H0z"/></clipPath></defs></svg>