<svg width="27" height="21" fill="none" xmlns="http://www.w3.org/2000/svg"><g clip-path="url(#clip0_11149_81547)"><path fill-rule="evenodd" clip-rule="evenodd" d="M0 .5h26.667v20H0V.5z" fill="#00ABC2"/><path fill-rule="evenodd" clip-rule="evenodd" d="M2.508 19.959c.138.133.092.354.471.325.575 0 .592-.35.592-.596s-.863-.588-.904-.95c-.042-.363.2-.458.4-.458.195 0 .333.112.333.212 0 .1-.092.133-.233.133-.142 0 .062-.07-.059-.125-.12-.054-.2.084-.2.167 0 .092.3.117.5.054.042.196.059.209-.22.542.2-.13.216-.158.437-.083-.221-.192-.054-.575-.05-.671a.33.33 0 00-.125-.271c-.163-.146-.508-.154-.717-.058-.304.133-.32.533-.241.666l.841.85c.059.1.084.384-.275.396-.375.03-.508-.483-.575-.654-.087.187-.187.7-.566.67-.359-.012-.425-.29-.367-.395l.862-.875c.084-.133.067-.533-.237-.667-.208-.096-.554-.083-.713.059a.301.301 0 00-.133.27c.008.1.17.48-.046.667.217-.07.238-.042.438.083-.28-.329-.259-.341-.221-.541.2.066.5.041.5-.046 0-.088-.083-.233-.204-.175-.117.058.083.13-.059.13-.137 0-.237-.03-.237-.126s.137-.22.337-.22.438.1.396.462c-.041.362-.916.754-.916 1 0 .25.058.546.633.546.375.029.42-.192.558-.325v.004z" fill="#FFEC2D"/><path fill-rule="evenodd" clip-rule="evenodd" d="M2.463 14.806c.137-.133.25-.525.625-.5.575 0 .791.32.791.567 0 .245-1.166 2.25-1.208 2.612-.042.363.2.463.396.463.2 0 .337-.113.337-.217s-.1-.125-.237-.125c-.138 0 .058.07-.059.125-.116.054-.2-.084-.2-.171 0-.087.3-.117.5-.05.038-.196.055-.208-.22-.542.2.125.216.159.437.084-.22.191-.058.57-.05.666a.319.319 0 01-.129.275c-.158.146-.508.15-.717.059-.3-.138-.316-.534-.237-.667l1.133-2.442c.063-.1-.096-.433-.454-.445-.375-.03-.504.366-.57.537l.512-.042s.02.084 0 .134a4.578 4.578 0 00-.513.066l-.02.259h.25l-.017.116s-.213-.016-.234 0c-.02.013-.041.259-.041.259s-.042.016-.084.016a.27.27 0 01-.083-.016s-.017-.246-.038-.259c-.02-.016-.233 0-.233 0l-.02-.116h.253l-.02-.259s-.25-.05-.513-.066c-.017-.05 0-.13 0-.13l.513.038c-.067-.17-.196-.567-.571-.542-.359.017-.517.35-.459.45l1.134 2.442c.079.13.062.53-.238.667-.208.091-.558.083-.716-.059a.312.312 0 01-.13-.27c.009-.096.167-.484-.05-.667.221.07.242.041.438-.088-.275.334-.258.346-.217.542.196-.067.496-.042.496.05 0 .083-.083.23-.2.17-.117-.058.083-.124-.058-.124-.138 0-.238.025-.238.125s.138.216.334.216c.195 0 .437-.1.4-.458-.042-.362-1.209-2.375-1.209-2.617 0-.25.217-.562.792-.562.375-.03.512.362.646.496h-.004z" fill="#FFEC2D"/><path fill-rule="evenodd" clip-rule="evenodd" d="M2.463 13.81c.137.133.25.525.625.5.575 0 .791-.321.791-.567 0-.246-1.166-2.25-1.208-2.612-.042-.363.2-.463.396-.463.2 0 .337.113.337.217s-.1.125-.237.125c-.138 0 .058-.067-.059-.125-.116-.059-.2.083-.2.17 0 .088.3.117.5.05.038.197.055.209-.22.542.2-.125.216-.158.437-.083-.22-.192-.058-.57-.05-.667a.319.319 0 00-.129-.275c-.158-.141-.508-.15-.717-.058-.3.137-.316.533-.237.667l1.133 2.437c.063.1-.096.434-.454.446-.375.03-.504-.367-.57-.538l.512.042s.02-.083 0-.133a4.602 4.602 0 01-.513-.067l-.02-.258h.25l-.017-.117s-.213.017-.234 0c-.02-.012-.041-.258-.041-.258s-.042-.017-.084-.017c-.041 0-.083.017-.083.017s-.017.246-.038.258c-.02.017-.233 0-.233 0l-.02.117h.253l-.02.258s-.25.05-.513.067a.302.302 0 000 .129l.513-.038c-.067.171-.196.567-.571.542-.359-.017-.517-.35-.459-.45l1.134-2.437c.079-.134.062-.53-.238-.667-.208-.092-.558-.083-.716.058a.312.312 0 00-.13.271c.009.096.167.48-.05.667.221-.071.242-.042.438.087-.275-.333-.258-.345-.217-.541.196.066.496.041.496-.05 0-.084-.083-.23-.2-.171-.117.058.083.125-.058.125-.138 0-.238-.025-.238-.125s.138-.217.334-.217c.195 0 .437.1.4.459-.042.362-1.209 2.374-1.209 2.616 0 .25.217.563.792.563.375.029.512-.363.646-.496h-.004z" fill="#FFEC2D"/><path fill-rule="evenodd" clip-rule="evenodd" d="M2.463 7.193c.137-.134.25-.525.625-.5.575 0 .791.32.791.566 0 .246-1.166 2.25-1.208 2.617-.042.358.2.458.396.458.2 0 .337-.112.337-.212 0-.1-.1-.134-.237-.134-.138 0 .058.075-.059.134-.116.058-.2-.088-.2-.175 0-.084.3-.117.5-.05.038-.196.055-.209-.22-.542.2.13.216.158.437.083-.22.192-.058.575-.05.667a.324.324 0 01-.129.275c-.158.146-.508.15-.717.058-.3-.137-.316-.533-.237-.666l1.133-2.438c.063-.1-.096-.433-.454-.446-.375-.029-.504.367-.57.538l.512-.042s.02.084 0 .134c-.267.016-.513.066-.513.066l-.02.259h.25l-.017.116s-.213-.012-.234 0c-.02.013-.041.263-.041.263s-.042.012-.084.012c-.041 0-.083-.012-.083-.012s-.017-.25-.038-.263c-.02-.012-.233 0-.233 0l-.02-.116h.253l-.02-.259s-.25-.05-.513-.066c-.017-.05 0-.13 0-.13l.513.038c-.067-.171-.196-.567-.571-.542-.359.017-.517.35-.459.45l1.134 2.438c.079.133.062.529-.238.666-.208.092-.558.084-.716-.058a.312.312 0 01-.13-.27c.009-.097.167-.48-.05-.667.221.07.242.041.438-.088-.275.333-.258.346-.217.542.196-.067.496-.038.496.05 0 .083-.083.229-.2.17-.117-.054.083-.124-.058-.124-.138 0-.238.024-.238.124s.138.217.334.217c.195 0 .437-.1.4-.458-.042-.363-1.209-2.37-1.209-2.617 0-.246.217-.562.792-.562.375-.03.512.362.646.5l-.004-.004z" fill="#FFEC2D"/><path fill-rule="evenodd" clip-rule="evenodd" d="M2.463 6.197c.137.133.25.529.625.5.575 0 .791-.321.791-.567 0-.246-1.166-2.25-1.208-2.613-.042-.362.2-.462.396-.462.2 0 .337.117.337.217 0 .1-.1.129-.237.129-.138 0 .058-.071-.059-.13-.116-.058-.2.084-.2.171 0 .088.3.117.5.05.038.196.055.209-.22.542.2-.125.216-.158.437-.083-.22-.188-.058-.571-.05-.667a.319.319 0 00-.129-.275c-.158-.142-.508-.15-.717-.054-.3.133-.316.533-.237.662L3.625 6.06c.063.1-.096.433-.454.45-.375.025-.504-.367-.57-.542l.512.042s.02-.083 0-.133a4.648 4.648 0 01-.513-.063l-.02-.262h.25l-.017-.117s-.213.017-.234 0c-.02-.012-.041-.258-.041-.258s-.042-.017-.084-.017c-.041 0-.083.017-.083.017s-.017.246-.038.258c-.02.017-.233 0-.233 0l-.02.117h.253l-.02.262s-.25.046-.513.063a.326.326 0 000 .133l.513-.042c-.067.175-.196.567-.571.542-.359-.017-.517-.35-.459-.45l1.134-2.442c.079-.129.062-.529-.238-.666-.208-.092-.558-.084-.716.058a.312.312 0 00-.13.27c.009.097.167.484-.05.668.221-.071.242-.042.438.087-.275-.333-.258-.346-.217-.542.2.067.496.042.496-.05 0-.083-.083-.229-.2-.17-.117.058.083.129-.058.129-.138 0-.238-.03-.238-.13s.138-.216.334-.216c.195 0 .441.1.4.458-.042.363-1.209 2.375-1.209 2.617 0 .25.217.567.792.567.375.029.512-.367.646-.5h-.004z" fill="#FFEC2D"/><path fill-rule="evenodd" clip-rule="evenodd" d="M2.508 1.042C2.646.91 2.6.688 2.98.717c.575 0 .592.35.592.596s-.863.588-.904.95c-.042.363.2.459.4.459.195 0 .333-.113.333-.213 0-.1-.092-.133-.233-.133-.142 0 .062.07-.059.125-.12.054-.2-.084-.2-.167 0-.092.3-.12.5-.054.042-.196.059-.208-.22-.542.2.13.216.159.437.084-.221.191-.054.575-.05.67a.33.33 0 01-.125.271c-.167.154-.513.154-.721.063-.304-.134-.32-.534-.242-.667l.846-.854c.059-.1.084-.383-.275-.396-.375-.029-.508.483-.575.654-.087-.187-.187-.704-.566-.675-.359.013-.425.292-.367.396l.862.875c.084.133.067.533-.237.667-.208.096-.554.087-.713-.059a.301.301 0 01-.133-.27c.008-.1.17-.48-.046-.667.217.07.238.042.434-.083-.275.329-.255.341-.217.541.2-.066.5-.041.5.046 0 .088-.083.233-.204.175-.117-.058.083-.129-.059-.129-.137 0-.237.03-.237.125 0 .096.137.22.337.22s.438-.1.396-.462c-.041-.362-.916-.754-.916-1 0-.25.058-.546.633-.546.375-.029.42.192.558.325z" fill="#FFEC2D"/><path d="M18.397 9.079c0-1.981-1.694-3.587-3.784-3.587s-3.785 1.606-3.785 3.587c0 1.98 1.695 3.586 3.785 3.586s3.784-1.605 3.784-3.586z" fill="#FFEC2D"/><path fill-rule="evenodd" clip-rule="evenodd" d="M14.435 3.352c-.036 0-.205 1.192-.267 1.459-.062.6.8.578.658-.022l-.391-1.441v.004zm.302 11.554c.031 0 .29-1.179.374-1.441.102-.592-.76-.623-.667-.018l.293 1.459zm-6.03-5.853c0 .031 1.24.28 1.516.36.623.103.667-.711.027-.622l-1.543.267v-.005zm12.083.143c0-.032-1.254-.236-1.534-.307-.628-.076-.632.738 0 .627l1.534-.32zM9.979 5.273c-.022.022.796.947.96 1.174.427.445.992-.178.427-.48l-1.387-.69v-.004zm9.388 7.605c.022-.023-.876-.876-1.063-1.085-.467-.41-.97.253-.383.511l1.446.578v-.004zM11.85 3.984c-.027.013.356 1.16.418 1.432.214.564.987.195.587-.29l-1-1.142h-.005zm5.475 10.335c.03-.014-.267-1.183-.307-1.455-.174-.578-.97-.266-.61.25l.92 1.2-.003.005zm1.347-9.535c-.027-.022-1.014.738-1.254.89-.476.4.169.942.498.413l.756-1.303zm-8.138 8.614c.022.022 1.067-.667 1.316-.805.503-.364-.098-.951-.467-.445l-.845 1.25h-.004zM8.978 6.99c-.013.026 1.068.654 1.303.818.556.29.88-.467.245-.587L8.978 6.99zm11.283 4.376c.013-.027-1.023-.725-1.246-.903-.533-.33-.911.405-.284.565l1.53.338zm-3.585-7.69c-.03-.008-.65 1.041-.814 1.268a.347.347 0 00.623.21l.191-1.477zM12.5 14.542c.031.013.725-.996.903-1.214.325-.516-.462-.845-.61-.25l-.293 1.464zM9.054 11.46c.013.027 1.245-.267 1.534-.311.605-.17.267-.916-.267-.57l-1.267.881zm11.211-4.567c-.009-.027-1.259.182-1.548.209-.622.129-.333.898.223.587l1.325-.796z" fill="#FFEC2D"/><path fill-rule="evenodd" clip-rule="evenodd" d="M15.662 3.426c-.032-.004-.45 1.13-.574 1.379-.182.578.667.72.654.107l-.076-1.49-.004.004zm-2.157 11.38c.03.01.533-1.098.676-1.343.222-.56-.614-.756-.645-.146l-.036 1.49h.005zm-.432-11.268c-.03.008.085 1.21.085 1.485.084.591.916.387.64-.165l-.725-1.32zm3.024 11.202c.031-.005 0-1.21.023-1.486-.04-.6-.89-.449-.65.12l.623 1.366h.004zM10.93 4.534c-.027.017.565 1.08.676 1.334.32.52 1.01.03.525-.383l-1.201-.951zm7.329 9.245c.026-.018-.49-1.12-.578-1.379-.28-.538-1.001-.093-.552.347l1.13 1.032zM9.365 6.028c-.018.027.938.818 1.138 1.023.494.373.952-.32.347-.538l-1.485-.485zM19.78 12.24c.017-.026-.877-.88-1.063-1.094-.463-.404-.97.258-.383.516l1.446.578zM8.68 7.891c-.01.031 1.17.48 1.427.61.596.2.787-.596.138-.614L8.68 7.89zm11.891 2.57c.013-.026-1.13-.55-1.378-.698-.579-.24-.832.543-.187.605l1.565.094zm-11.931-.28c.004.027 1.276.01 1.565.032.631-.032.48-.836-.124-.619l-1.441.587zm12.016-2c0-.032-1.272-.099-1.557-.139-.636-.008-.542.805.076.623l1.48-.49v.005zM9.729 12.555c.018.027 1.156-.516 1.423-.618.552-.289.045-.952-.395-.503l-1.028 1.121zm9.886-6.773c-.018-.026-1.187.44-1.467.525-.574.254-.116.947.355.53l1.112-1.055zm-8.036 8.348c.027.013.84-.912 1.045-1.108.387-.476-.356-.89-.573-.311l-.472 1.418zm6.213-9.953c-.023-.018-.903.85-1.12 1.032-.419.449.293.911.55.35l.565-1.382h.005z" fill="#FFEC2D"/><path fill-rule="evenodd" clip-rule="evenodd" d="M8.826 11.462c.068.23.078 1.514 1.446 2.752 1.359 1.23 3.688 1.505 3.688 1.505s.01.174-.155.183c-.165.019-.96-.137-1.359-.257-.388-.11-.737-.311-.776-.302-.049.018-.126.146-.243.128-.116-.018-.68-.569-.932-.716a7.55 7.55 0 01-1.33-1.403c-.271-.413-.339-.688-.426-.688-.088 0-.408.202-.408.202s-.291-.413-.543-1.074c-.262-.66-.233-1.046-.175-1.073.068-.027.068.486.262.954.194.477.466.624.466.624s-.175-.248-.31-.862c-.137-.615-.195-1.211-.098-1.395.097-.183.185-.238.194-.23.02.02-.165.285-.039.992.127.706.466 1.302.544 1.275.078-.028-.049-.175-.097-.587-.049-.413.048-.67.155-.707.049-.037.126.459.136.68zm-.951 1.174c-.262-.229-.67-1.027-.757-.99-.097.045.66 1.192.68 1.284.019.11.184.422.058.376-.127-.046-1.03-.945-.922-.77.106.174.786.963.747 1.009-.039.045-.563-.44-.582-.377-.01.056.514.533.504.588-.01.055-.34-.303-.34-.23 0 .074.34.431.34.486 0 .056-.29-.256-.194-.091.087.183.34.34.33.394-.01.055-.213-.073-.213-.046 0 .028.378.156.465.257.097.101.719.78 1.184 1.12.466.339 1.806.935 1.903.935.087 0 .223-.183.194-.257-.03-.073-1.34-.495-1.699-.807-.368-.312-1.261-1.064-1.339-1.1-.068-.047-.272-.028-.272-.074s.262.027.243 0c-.01-.028-.36-.175-.35-.202.02-.028.243.055.243.027 0-.027-.407-.238-.388-.284.01-.046.3.128.3.092 0-.019-.387-.276-.378-.321.01-.046.301.202.292.146-.01-.055-.233-.367-.233-.403 0-.046.349.312.388.238.02-.064-.126-.66-.117-.67.01-.009.262.129.301.046.049-.091-.175-.21-.388-.376zm4.474 4.514c-.184.027-.272-.037-.165-.184.146 0 .534-.119.67-.174a1.43 1.43 0 00.398-.23c.116-.119.194.065.126.166-.049.064-.272.183-.437.248-.243.073-.456.183-.592.174zm1.213-.468c-.126-.128-.02-.22.165-.321.272-.138.194-.33.544-.486.155-.092 2.33-.918 3.037-1.358.709-.44 2.699-1.862 3.232-2.844.524-.972.272-1.046.35-1.082.068-.046.145.137.136.357-.02.211-.194.854-.136.918.058.064.796-.505 1.106-1.193.31-.688.544-1.403.69-1.403.155 0-.253 1.174-.515 1.633-.252.458-.553.688-.485.788.077.092.834-.504 1.096-.945.253-.449.495-.843.544-.76a3.03 3.03 0 01-.65 1.476c-.408.44-.893.761-.816.826.068.073.622.146 1.194-.22.582-.377.64-.918.709-.89.077.027-.068.77-.622 1.229-.553.459-1.28.505-1.261.605.039.092 1.582-.421 1.553-.302-.03.11-2 .844-2.02.917 0 .055.34.073.874-.046.524-.11 1.03-.504 1.097-.413.02.129-.378.44-.98.588-.612.146-.913.339-.932.385-.01.046 1.087-.129 1.087-.073 0 .055-1.436.32-1.446.394-.02.064 1.359-.266 1.34-.184-.04.065-1.874.578-1.854.606.01.037 1.533-.312 1.504-.257-.039.064-2.562.734-2.582.78-.02.037 2.233-.477 2.213-.431-.02.046-1.165.312-1.165.34 0 .027.922-.139.903-.093-.01.037-2.33.597-2.378.68-.048.091 1.204-.23 1.184-.065-.019.165-2.688 1.01-2.698.853-.02-.156 1.621-.55 1.611-.596-.019-.046-.941.092-.96.01-.01-.093.611-.276.563-.313-.05-.046-.515.129-.476.028.048-.101.932-.486.912-.514-.01-.028-.32.092-.291 0 .039-.101 1.912-.615 1.883-.679-.03-.055-.864.128-.942.147-.029-.055 1.165-.477 1.146-.55-.04-.065-.64.247-.68.165-.02-.092 1.058-.487.99-.55-.068-.065-.553.164-.62.1-.069-.064 1.018-.77.853-.789-.165-.01-.369.22-.388.073.02-.183.844-.486.66-.633-.291-.082-1.271.065-1.68.294-.407.23-1.766 1.505-2.095 1.706-.33.193-1.456.643-1.67.734-.33.11-.388.276-.728.44-.611.157-.601.33-.893.432-.106.027-1.203.523-1.213.486zm-1.533.642c-.185.092-.35.312-.243.404.058.11.243-.248.388-.23l.777.037c.417.028.621-.082.854-.064.233.018.747-.12.99-.12.242 0 .291.028.31-.073.03-.091-.757-.027-1.106-.036-.35-.019-.786.064-1.048.064-.243-.01-.66-.083-.922.018z" fill="#FFEC2D"/><path d="M13.193 17.216c0-.076-.074-.138-.165-.138-.09 0-.165.062-.165.138 0 .076.074.137.165.137.091 0 .165-.061.165-.137z" fill="#FFEC2D"/><path fill-rule="evenodd" clip-rule="evenodd" d="M17.066 16.949c.165-.028.611.119.922.183.563.211 1.611.11 1.611.211 0 .101-.068.22-.31.239-.243.018-.855-.092-.835-.092.02 0 .485.211.35.266-.136.055-.534-.12-.602-.073-.068.046.368.128.29.156-.058.027-.358-.037-.455-.028-.097.018.077.12-.04.156-.116.046-.31-.055-.387-.027-.088.027.174.183.058.201-.117.019-.388-.073-.544-.091-.155 0 .146.146.049.165-.097.009-.369-.12-.437-.12s0 .184-.097.184-.213-.156-.272-.156c-.058 0 0 .183-.097.183s-.136-.192-.213-.183c-.097.018 0 .248-.136.23-.126-.01-.146-.24-.252-.23-.098.018.019.23-.078.23s-.117-.212-.214-.23c-.097-.01-.058.202-.116.202s-.117-.202-.155-.202c-.03 0 0 .202-.117.183-.116-.018-.116-.22-.145-.21-.04.018-.04.165-.117.165-.078 0-.087-.147-.116-.129-.04.01-.156.193-.233.165-.088-.027.02-.174-.02-.174-.039 0-.136.1-.194.092-.058-.01 0-.129-.02-.129-.019 0-.164.074-.232.074s-.253.091-.301.009c-.049-.092.126-.092.165-.175.03-.082-.097-.33.039-.412.126-.092.543.119 1.164-.028 1.126-.284 2-.614 2.087-.605z" fill="#FFEC2D"/></g><defs><clipPath id="clip0_11149_81547"><path fill="#fff" transform="translate(0 .5)" d="M0 0h26.667v20H0z"/></clipPath></defs></svg>