<svg width="27" height="20" fill="none" xmlns="http://www.w3.org/2000/svg"><g clip-path="url(#clip0_11149_81877)" fill-rule="evenodd" clip-rule="evenodd"><path d="M0 0h26.667v20H0V0z" fill="#E30A17"/><path d="M16.959 10.312c0 2.759-2.275 4.996-5.084 4.996-2.808 0-5.083-2.237-5.083-5 0-2.762 2.275-4.992 5.083-4.992 2.809 0 5.084 2.238 5.084 4.996z" fill="#fff"/><path d="M17.208 10.312c0 2.209-1.816 3.996-4.062 3.996-2.246 0-4.067-1.792-4.067-4s1.82-3.992 4.067-3.992c2.246 0 4.066 1.788 4.066 3.996h-.004z" fill="#E30A17"/><path d="M17.946 7.98l-.042 1.847-1.72.466 1.7.604-.042 1.696 1.104-1.325 1.675.584-.967-1.421 1.18-1.413-1.813.5-1.075-1.541v.004z" fill="#fff"/></g><defs><clipPath id="clip0_11149_81877"><path fill="#fff" d="M0 0h26.667v20H0z"/></clipPath></defs></svg>